<mxfile host="app.diagrams.net" agent="Mozilla/5.0 (Windows NT 10.0; Win64; x64) AppleWebKit/537.36 (KHTML, like Gecko) Chrome/134.0.0.0 Safari/537.36" version="26.1.1">
  <diagram name="第 1 页" id="fy0pCHuaPRtrpl2Gr3BS">
    <mxGraphModel dx="1212" dy="724" grid="1" gridSize="10" guides="1" tooltips="1" connect="1" arrows="1" fold="1" page="1" pageScale="1" pageWidth="827" pageHeight="1169" math="0" shadow="0">
      <root>
        <mxCell id="0" />
        <mxCell id="1" parent="0" />
        <mxCell id="H7Hj94CXA3mKFmwpcMTP-3" value="" style="edgeStyle=orthogonalEdgeStyle;rounded=0;orthogonalLoop=1;jettySize=auto;html=1;" edge="1" parent="1" source="H7Hj94CXA3mKFmwpcMTP-1" target="H7Hj94CXA3mKFmwpcMTP-2">
          <mxGeometry relative="1" as="geometry" />
        </mxCell>
        <mxCell id="H7Hj94CXA3mKFmwpcMTP-7" value="" style="edgeStyle=orthogonalEdgeStyle;rounded=0;orthogonalLoop=1;jettySize=auto;html=1;" edge="1" parent="1" source="H7Hj94CXA3mKFmwpcMTP-1" target="H7Hj94CXA3mKFmwpcMTP-6">
          <mxGeometry relative="1" as="geometry">
            <Array as="points">
              <mxPoint x="260" y="170" />
              <mxPoint x="260" y="280" />
            </Array>
          </mxGeometry>
        </mxCell>
        <mxCell id="H7Hj94CXA3mKFmwpcMTP-1" value="第一次回填" style="rounded=1;whiteSpace=wrap;html=1;" vertex="1" parent="1">
          <mxGeometry x="100" y="140" width="120" height="60" as="geometry" />
        </mxCell>
        <mxCell id="H7Hj94CXA3mKFmwpcMTP-5" value="" style="edgeStyle=orthogonalEdgeStyle;rounded=0;orthogonalLoop=1;jettySize=auto;html=1;" edge="1" parent="1" source="H7Hj94CXA3mKFmwpcMTP-2" target="H7Hj94CXA3mKFmwpcMTP-4">
          <mxGeometry relative="1" as="geometry" />
        </mxCell>
        <mxCell id="H7Hj94CXA3mKFmwpcMTP-2" value="不编辑" style="whiteSpace=wrap;html=1;rounded=1;" vertex="1" parent="1">
          <mxGeometry x="300" y="140" width="120" height="60" as="geometry" />
        </mxCell>
        <mxCell id="H7Hj94CXA3mKFmwpcMTP-4" value="保存答案 ，回填原数据id是自己" style="whiteSpace=wrap;html=1;rounded=1;" vertex="1" parent="1">
          <mxGeometry x="500" y="140" width="120" height="60" as="geometry" />
        </mxCell>
        <mxCell id="H7Hj94CXA3mKFmwpcMTP-9" value="" style="edgeStyle=orthogonalEdgeStyle;rounded=0;orthogonalLoop=1;jettySize=auto;html=1;" edge="1" parent="1" source="H7Hj94CXA3mKFmwpcMTP-6" target="H7Hj94CXA3mKFmwpcMTP-8">
          <mxGeometry relative="1" as="geometry" />
        </mxCell>
        <mxCell id="H7Hj94CXA3mKFmwpcMTP-6" value="编辑" style="rounded=1;whiteSpace=wrap;html=1;" vertex="1" parent="1">
          <mxGeometry x="300" y="250" width="120" height="60" as="geometry" />
        </mxCell>
        <mxCell id="H7Hj94CXA3mKFmwpcMTP-11" value="" style="edgeStyle=orthogonalEdgeStyle;rounded=0;orthogonalLoop=1;jettySize=auto;html=1;" edge="1" parent="1" source="H7Hj94CXA3mKFmwpcMTP-8" target="H7Hj94CXA3mKFmwpcMTP-10">
          <mxGeometry relative="1" as="geometry" />
        </mxCell>
        <mxCell id="H7Hj94CXA3mKFmwpcMTP-8" value="表里没有原数据" style="rounded=1;whiteSpace=wrap;html=1;" vertex="1" parent="1">
          <mxGeometry x="490" y="250" width="120" height="60" as="geometry" />
        </mxCell>
        <mxCell id="H7Hj94CXA3mKFmwpcMTP-10" value="新增两份答案" style="whiteSpace=wrap;html=1;rounded=1;" vertex="1" parent="1">
          <mxGeometry x="690" y="250" width="120" height="60" as="geometry" />
        </mxCell>
      </root>
    </mxGraphModel>
  </diagram>
</mxfile>
